<?xml version="1.0" encoding="utf-8"?>
<!-- Generator: Adobe Illustrator 25.0.1, SVG Export Plug-In . SVG Version: 6.00 Build 0)  -->
<svg version="1.1" id="Layer_1" xmlns="http://www.w3.org/2000/svg" xmlns:xlink="http://www.w3.org/1999/xlink" x="0px" y="0px"
	 viewBox="0 0 392.3 188.6" style="enable-background:new 0 0 392.3 188.6;" xml:space="preserve">
<style type="text/css">
	.st0{fill:#FFF2E9;}
	.st1{fill:#FAEBED;}
	.st2{fill:#EEC4E0;}
	.st3{fill:#ECBC5E;}
	.st4{fill:#102F4B;}
	.st5{fill:#F05D54;}
</style>
<g>
	<g>
		<path class="st5" d="M119.6,39.4c1.7-1.5,3.3-2.9,5-4.4c3.7-3.4,8-6.1,13-7.2c6.1-1.3,13.9,0.5,17.7,5.5c0.7,0.9,1.4,1.9,1.7,3.1
			c0.3,1.4,1.1,1.7,2.1,0.6c2.2-2.3,4.6-4.3,7.3-6c6.6-4.1,13.5-4.9,20.6-1.4c4.6,2.2,7.3,6,7.3,11.1c0.1,14.7,0,29.4,0.1,44
			c0,1.5-0.6,1.9-2,1.9c-5.6-0.1-11.2-0.1-16.8,0c-1.6,0-1.9-0.6-1.9-2c0-14.7,0-29.4,0.1-44c0-2-0.5-3.9-1.1-5.7
			c-0.9-2.7-4.6-3.2-7.6-1.3c-2.7,1.7-4.8,3.9-6.8,6.3c-0.6,0.7-0.4,1.5-0.4,2.3c0,14,0,27.9,0,41.9c0,2.4,0,2.4-2.5,2.4
			c-5.3,0-10.7-0.1-16,0c-1.6,0-2.2-0.4-2.1-2.1c0.1-15.1,0-30.2,0.1-45.3c0-1.8-0.5-3.5-1.4-4.9c-1.5-2.3-4.1-2.6-7-0.9
			c-3.7,2.3-6.3,5.6-9.1,8.8c-0.6,0.7-0.4,1.6-0.4,2.4c0,13.2,0,26.4,0,39.7c0,2.3,0,2.3-2.4,2.3c-5.5,0-11,0-16.5,0
			c-1.3,0-1.8-0.3-1.8-1.7c0-17.8,0-35.5,0-53.3c0-1.5,0.5-2.1,2.1-2.1c5.5,0.1,11.1,0.1,16.6,0c1.6,0,2,0.6,2,2
			c-0.1,2.1,0,4.2,0,6.3C119.4,38.4,119.3,39.1,119.6,39.4z"/>
		<path class="st5" d="M47.9,29.7c-1.5,2.1-3.5,3.5-5.3,5.2c-5.4,4.8-10.8,9.6-16.2,14.4c-0.3,0.3-1.1,0.5-0.7,1.1
			c0.4,0.6,1,0.1,1.5,0c4.7-1.7,9.5-3.1,14.6-1.7c4.3,1.1,7.8,3.4,10.4,7c3.5,4.9,5.5,10.4,8,15.7c2.3,4.9,5.3,9.5,9.1,13.5
			c0.4,0.4,1,0.8,0.9,1.3c-0.2,0.6-1,0.5-1.6,0.6c-5.1,0.8-10.2,0.3-15.3-0.4c-6.3-0.9-10.9-4.5-13.9-10c-1.8-3.3-3-6.8-4.2-10.4
			c-0.9-2.9-1.5-5.9-2.8-8.7c-0.9-1.9-2.5-3.1-4.4-3.5c-2-0.4-4-0.4-6,0.4c-1.2,0.5-1.5,1.2-1.5,2.5c0,9.2,0,18.5,0,27.7
			c0,2.3,0,2.3-2.4,2.3c-5.5,0-11,0-16.5,0c-1.3,0-1.8-0.4-1.8-1.7C0,57.2,0,29.5,0,1.9C0,0.3,0.6,0,2,0c5.4,0,10.8,0,16.1,0
			c2.5,0,2.5,0,2.5,2.4c0,15.5,0,31.1,0,46.6c0,0.5,0,1,0,1.5c0,0.4,0,0.9,0.4,1.2c0.5,0.2,0.8-0.2,1.2-0.4c1.8-1.6,3.6-3.2,5.4-4.7
			c6-5.3,12-10.7,18.1-15.9C46.2,30.1,46.7,29.3,47.9,29.7z"/>
		<path class="st5" d="M199,122.7c-5.4,0-10.8,0-16.1,0c-2.5,0-2.8,0.4-2.2,2.6c0.3,1.3,0.3,2.7,0.5,4c1,6.5,3.1,12.6,8.2,17.2
			c6.1,5.5,15.5,5.2,21.6-0.5c2.7-2.5,4.8-5.4,6-8.8c0.2-0.6,0.6-1.4,1.3-1.2c0.7,0.2,0.5,1,0.4,1.6c-0.7,2.9-1.8,5.7-3.3,8.3
			c-3.1,5.5-7.6,9.7-13.6,12c-2.6,1-5.4,1.5-8.2,1.6c-10.6,0.5-19.5-3.1-26.4-11.1c-2.8-3.2-4.6-6.9-5.8-11
			c-1.4-4.6-1.4-9.3-0.5-13.7c1.4-7.2,5.4-13.1,11.5-17.6c7.5-5.6,16.1-7.2,25.2-5.8c6.2,0.9,11.8,3.4,15.6,8.6
			c1.9,2.6,3.4,5.3,3.7,8.6c0.1,1.1,0.6,2.2,0.8,3.3c0.3,1.4-0.3,2-1.8,2C210.2,122.7,204.6,122.7,199,122.7z M189.3,121.5
			c2.5,0,5,0,7.6,0c1,0,1.6-0.3,1.5-1.4c-0.3-5-0.1-10-2.3-14.6c-1.7-3.7-5.2-5.7-9.2-2.6c-1.7,1.3-2.7,3.1-3.6,4.9
			c-1.9,3.7-2.1,7.9-2.9,12c-0.3,1.2,0.2,1.8,1.5,1.8C184.4,121.5,186.8,121.5,189.3,121.5z"/>
		<path class="st5" d="M224.4,129.9c0-8.6,0-17.3,0-25.9c0-2.6,0-2.6,2.8-2.6c5.3,0,10.6,0,16,0c1.5,0,2,0.5,1.9,1.9
			c-0.1,1.4,0,2.8,0,4.2c0,0.4-0.1,1,0.4,1.2c0.6,0.2,0.7-0.4,0.9-0.7c1.9-2.6,4.3-4.7,7.3-6.1c3.8-1.7,7.8-2,11.7-1.3
			c4.2,0.7,8.1,2.4,10.6,6.1c1.6,2.2,2.6,4.7,2.6,7.5c0.1,3.4-0.1,6.7-2,9.8c-3.7,5.9-13.5,6.5-17.1,0.4c-0.5-0.9-0.9-1.8-1.3-2.8
			c-0.3-0.8,0.5-1.2,1-1.6c2.1-1.5,4.1-3.2,5.1-5.5c1.7-3.9,1.2-9.9-4-11.7c-3.2-1.1-6.1,0.1-8.7,1.8c-3.1,1.9-4.9,4.8-6.5,7.9
			c-0.3,0.5-0.2,1.3-0.2,1.9c0,14,0,28,0,42.1c0,2.2,0,2.2-2.3,2.2c-5.3,0-10.6,0-16,0c-2.4,0-2.4,0-2.4-2.4
			C224.4,147.2,224.4,138.5,224.4,129.9z"/>
		<path class="st5" d="M282.3,130.1c0-8.8,0-17.6,0-26.4c0-2.3,0-2.4,2.4-2.4c5.4,0,10.8,0.1,16.1,0c1.7,0,2.2,0.6,2.1,2.2
			c-0.1,1.4,0,2.8,0,4.2c0,0.4,0,0.8,0.4,0.9c0.4,0.1,0.5-0.3,0.7-0.6c2-2.7,4.4-4.9,7.5-6.3c3.9-1.7,7.9-2,11.9-1.2
			c4.2,0.8,7.9,2.5,10.4,6.1c1.5,2.2,2.5,4.6,2.6,7.3c0.1,3.4,0,6.7-1.9,9.8c-3.7,5.9-13.5,6.5-17.1,0.4c-0.5-0.9-0.9-1.8-1.3-2.8
			c-0.3-0.9,0.4-1.3,1-1.7c2.1-1.5,4.1-3.2,5.1-5.5c1.8-3.9,1.2-10.1-4.1-11.8c-3.3-1.1-6.1,0.3-8.8,2c-2.9,1.9-4.7,4.7-6.3,7.7
			c-0.3,0.6-0.2,1.4-0.2,2.1c0,14,0,27.9,0,41.9c0,2.3,0,2.3-2.2,2.3c-5.5,0-11,0-16.5,0c-1.5,0-2-0.4-2-1.9
			C282.3,147.7,282.3,138.9,282.3,130.1z"/>
		<path class="st5" d="M347.2,101.3c2.4,0,4.7,0,7.1,0c3.6,0,3.7,0.2,5.2,3.4c2.1,4.5,4.3,9,6.5,13.5c1.8,3.8,3.7,7.6,5.5,11.4
			c1,2,2,3.9,2.9,5.9c0.3,0.7,0.7,0.8,1.1,0.1c1-2,2-4,3-6.1c1.6-3.3,3.1-6.6,4.6-9.9c1.5-3.2,2.9-6.3,4.4-9.5
			c1.3-2.7,2.6-5.4,3.9-8.1c0.1-0.3,0.2-0.7,0.7-0.6c0.4,0.1,0.3,0.5,0.3,0.8c0.1,1.3-0.8,2.2-1.3,3.3c-2.4,5.5-5.1,10.8-7.5,16.3
			c-2.6,5.8-5.2,11.6-7.9,17.4c-2.8,6.1-5.4,12.3-8.3,18.4c-2.8,6-5.8,11.9-9.7,17.4c-2.2,3.1-4.7,6-8.2,8c-0.9,0.5-1.9,0.8-2.9,1
			c-7.3,1.5-14.3,0.5-18.7-5.6c-1.5-2.1-2.5-4.5-2.5-7c0-4.1,2.9-8.4,7-10.1c3.1-1.3,6.3-1.6,9.6-0.2c2.2,1,3.7,2.8,4.8,4.9
			c0.7,1.4,1.3,2.8,1.3,4.4c0,0.7-0.1,1.2-0.8,1.5c-0.8,0.3-1.5,0.7-2.2,1.1c-2.1,1.4-2.9,4.8-1.7,6.6c1.6,2.2,4.7,2.8,7.1,1.1
			c3.2-2.2,5.4-5.3,7.5-8.5c2.8-4.2,5.2-8.7,7.3-13.2c0.3-0.6,0.2-1.1-0.1-1.7c-3.3-6.4-6.5-12.8-9.8-19.1
			c-2.8-5.5-5.6-10.9-8.4-16.4c-2.8-5.5-5.6-11-8.5-16.5c-2.1-3.9-2.1-4.1,2.4-4.1C342.9,101.3,345,101.3,347.2,101.3z"/>
		<path class="st5" d="M81.5,23.5c-6.8,0.2-11.1-5.2-11.2-10.7C70.2,7.2,74.9,1.9,81.4,1.9c6.6,0,11.2,5.2,11.2,10.7
			C92.6,18.2,88.1,23.7,81.5,23.5z"/>
		<g>
			<path class="st5" d="M92.6,30.6L72.1,49c0,3,0,6,0,9c0,8.9,0,17.8,0,26.7c0,1.3,0.4,1.8,1.8,1.8c5.8-0.1,11.5-0.1,17.3,0
				c1.2,0,1.6-0.3,1.6-1.6c0-17.8,0-35.6,0-53.4C92.7,31.2,92.7,30.9,92.6,30.6z"/>
		</g>
		<path class="st5" d="M98.7,144.9c0-13.6,0-27.1,0-40.7c0-2.8,0-2.8,2.9-2.8c5.2,0,10.3,0.1,15.5,0c1.6,0,2.2,0.5,2.1,2.1
			c0,0.6-0.2,1.3,0.4,1.6c0.6,0.3,1-0.4,1.5-0.7c9.4-7.3,23.4-4.9,30.5,4.9c2.6,3.6,4.7,7.5,5.4,11.7c2.1,11.9-0.4,25.7-9.8,33.9
			c-4.7,4.1-10.2,5.7-16.3,4.7c-3.6-0.6-6.8-2.3-9.6-4.8c-0.5-0.4-1-1.2-1.6-0.9c-0.7,0.3-0.4,1.2-0.4,1.8c0,10.2,0,20.4,0,30.6
			c0,2.2-0.1,2.3-2.3,2.3c-5.2,0-10.4,0-15.6,0c-2.5,0-2.5-0.1-2.5-2.6C98.7,172.3,98.7,158.6,98.7,144.9z M119.1,129.5
			c0,5.5,0.2,11-0.1,16.5c-0.1,3.6,1.5,6.2,4,8.4c3.3,2.9,7.6,2.2,10-1.5c2.4-3.6,3.3-7.8,3.6-11.9c0.4-6.2,0.7-12.3,0.3-18.5
			c-0.3-5.1-1-10-3.1-14.6c-1.8-3.8-4-5.7-8.3-4.7c-2.8,0.7-6.4,5.3-6.4,8.3C119.1,117.4,119.1,123.5,119.1,129.5z"/>
	</g>
</g>
</svg>
