<?xml version="1.0" encoding="utf-8"?>
<!-- Generator: Adobe Illustrator 25.0.1, SVG Export Plug-In . SVG Version: 6.00 Build 0)  -->
<svg version="1.1" id="Layer_1" xmlns="http://www.w3.org/2000/svg" xmlns:xlink="http://www.w3.org/1999/xlink" x="0px" y="0px"
	 viewBox="0 0 226.3 292.9" style="enable-background:new 0 0 226.3 292.9;" xml:space="preserve">
<style type="text/css">
	.st0{fill:#F05D54;}
	.st1{fill:#FFF2E9;}
	.st2{fill:#FAEBED;}
	.st3{fill:#EEC4E0;}
	.st4{fill:#ECBC5E;}
	.st5{fill:#102F4B;}
</style>
<g>
	<g>
		<g>
			<path class="st0" d="M161.2,145.8c-0.2,13.1-10.1,26.1-22.3,30.5c-5.5,2-11.2,3.7-17,4.9c-7.5,1.7-8.1,6.3-6.8,12.7
				c3.3,15.5,6,31.2,9.5,46.7c3.4,14.8,7.4,29.4,11.3,44c0.8,2.8,2,5.3-0.9,7.2c-3.2,2.2-6.1,0.8-8.5-1.8c-5.7-5.8-5.9-13.9-8-21
				c-3.7-12.6-7.2-25.4-9.1-38.4c-1.6-10.6-4.8-21.1-4.5-32c0-2,0.8-5-2-5.7c-2-0.5-3.2,1.9-4.4,3.5c-4.5,5.9-8,12.4-10.6,19.3
				c-0.8,2.1-1.8,4-3.2,5.8c-1.8,2.3-4.4,2-6.8,1.5c-2.9-0.6-2.5-3.1-2.8-5.3c-0.9-6,2.5-10.9,3.7-16.4c3.4-15.2,8-30.2,12-45.3
				c3.8-14.4,7-29,11-43.3c4.5-16.2,9.4-32.3,14.6-48.4c6-18.6,12.4-37,18.7-55.5c0.6-1.8,1.6-3.6,2.4-5.4c1.1-2.5,3-4.1,5.8-3.4
				c2.7,0.7,3.8,2.8,4.3,5.5c1.1,5.8-2.2,10.6-3.8,15.6c-6.8,22.2-14.9,44-21.7,66.1c-5.4,17.5-9.6,35.3-14.5,52.9
				c-2.6,9.2-5.6,18.2-7.1,27.7c-0.3,1.7-3.2,3.6-0.1,5c2.6,1.1,3.9-1.2,5.2-3c6.4-8.8,14.4-16.2,22.1-23.8c3.9-3.8,8.3-7,12.8-10
				c4.9-3.3,10-4.2,15.4-1.7C161.7,137.2,161.4,142.5,161.2,145.8z M122.1,172.8c11.1,0.9,30.1-13.7,32.1-25.1
				c0.4-2.5-0.6-4.2-2.4-5.7c-1.7-1.4-3-0.8-4.6,0.1c-11.2,6.6-19.9,15.8-27.4,26.3C118.3,170.6,118,172.7,122.1,172.8z"/>
		</g>
		<path class="st0" d="M158.6,51.2C158.6,51.3,158.6,51.3,158.6,51.2c-0.5,1.8,0.3,3.5,1.9,4.3c34.7,17.4,58.6,53.3,58.6,94.7
			c0,44.3-27.3,82.2-65.9,98c-1.6,0.7-2.6,2.3-2.2,4l0,0.1c0.4,2.2,2.8,3.5,4.9,2.6c41.3-16.9,70.5-57.5,70.5-104.8
			c0-44.2-25.5-82.6-62.6-101.2C161.7,48,159.2,49,158.6,51.2z"/>
		<path class="st0" d="M90,255.6c-0.3-1.4-1.3-2.4-2.7-2.7c-45.9-11.6-80-53.2-80-102.7c0-52.2,38-95.7,87.8-104.3
			c1.4-0.2,2.5-1.2,2.9-2.5l0-0.1c0.7-2.5-1.4-5-4-4.6C40.7,47.9,0,94.4,0,150.2c0,52.9,36.5,97.4,85.6,109.7
			C88.1,260.6,90.5,258.3,90,255.6C90,255.7,90,255.7,90,255.6z"/>
	</g>
</g>
</svg>
